<?xml version="1.0" encoding="UTF-8" standalone="no"?>
<svg
   xmlns:dc="http://purl.org/dc/elements/1.1/"
   xmlns:cc="http://creativecommons.org/ns#"
   xmlns:rdf="http://www.w3.org/1999/02/22-rdf-syntax-ns#"
   xmlns:svg="http://www.w3.org/2000/svg"
   xmlns="http://www.w3.org/2000/svg"
   xmlns:sodipodi="http://sodipodi.sourceforge.net/DTD/sodipodi-0.dtd"
   xmlns:inkscape="http://www.inkscape.org/namespaces/inkscape"
   version="1.1"
   id="Layer_1"
   x="0px"
   y="0px"
   width="808"
   height="416"
   viewBox="0 0 807.9999999999993 415.9999999999994"
   enable-background="new 0 0 745 507"
   xml:space="preserve"
   inkscape:version="0.91 r13725"
   sodipodi:docname="Stagecoach.svg"><metadata
     id="metadata8"><rdf:RDF><cc:Work
         rdf:about=""><dc:format>image/svg+xml</dc:format><dc:type
           rdf:resource="http://purl.org/dc/dcmitype/StillImage" /><dc:title></dc:title><dc:date>2016</dc:date><dc:creator><cc:Agent><dc:title>Lazur</dc:title></cc:Agent></dc:creator><dc:description>Original raster images of this series were uploaded by NicholasJudy456 to openclipart embedded in svg-s (416 in total).  This is one of the refixes upon request by the original author.</dc:description></cc:Work></rdf:RDF></metadata><defs
     id="defs6" /><sodipodi:namedview
     pagecolor="#ffffff"
     bordercolor="#666666"
     borderopacity="1"
     objecttolerance="10"
     gridtolerance="10"
     guidetolerance="10"
     inkscape:pageopacity="0"
     inkscape:pageshadow="2"
     inkscape:window-width="1366"
     inkscape:window-height="705"
     id="namedview4"
     showgrid="false"
     borderlayer="true"
     inkscape:showpageshadow="false"
     inkscape:zoom="1.334134615384615"
     inkscape:cx="403.9999999999999"
     inkscape:cy="208"
     inkscape:window-x="-8"
     inkscape:window-y="-8"
     inkscape:window-maximized="1"
     inkscape:current-layer="Layer_1"
     fit-margin-top="0"
     fit-margin-left="0"
     fit-margin-right="0"
     fit-margin-bottom="0" /><path
     style="fill:#000000"
     d="m 150.4957028396551,395.0081305063793 -23.0042971603448,-0.00813050638 -14.2554286572711,-11.75 -14.25542865727107,-11.75 -8.26815487784296,-13 -10.51292323693225,-16.6546809288219 -2.24476835908928,-3.6546809288219 2.05664589310358,-20.8453190711781 2.05664589310361,-20.8453190711781 5.68231327529863,-9 11.46600316144459,-17.9711203324738 5.78368988614596,-8.9711203324738 0,-6.1111256067555 0,-6.1111256067555 -6.00438415023829,-14.6010455695257 -20.45986609403718,-53.7749880845808 -14.45548194379877,-39.1739425150549 -4.07728412266548,-27.2655794511229 -4.07728412266549,-27.26557945112267 1.0371502167026,-12.77240398546928 1.03715021670263,-14.06927217858407 0,-1.2968681931149 11.24999999999999,-3.52167980706412 11.25,-3.52167980706412 9.04961704537023,5.96376546058105 9.04961704537023,5.96376546058104 19.95038295462974,-0.006631081948 19.9503829546298,-0.006631081948 11.5,-1.98887877807039 11.5,-1.98887877807033 30.270353169984,4.03601202397567 30.2703531699839,4.03601202397567 9.1584918942325,3.49501259110383 9.1584918942324,3.49501259110372 13.9094258862732,-1.5310522083081 14.6095837767103,-1.96377358209014 11.0901389568713,-8.9532161544493 10.9615711590733,-8.22765306737603 9.5715900926391,5.41736368089221 9,5.12452196760103 28.3053278455714,1.5605672527522 28.3053278455713,1.56056725275226 2.822946926775,-2.2791773259483 8.1946721544287,-6.91603445669778 5.3717252276536,-4.63685713074949 15.5,-0.70686677770528 15.5,-0.70686677770527 13.9974929980546,-2.95159517526599 13.9974929980545,-2.95159517526605 7.5025070019455,1.65998554084672 10.0888576703949,2.98637287166713 2.5863506684496,1.32638733082041 2.9136493315504,3.80894621205368 2.9136493315505,3.80894621205363 -0.092249165186,16.00000000000005 -0.092249165186,16 -8.1545076658531,16.23176195538201 -8.1545076658529,16.2317619553819 2.2467568310389,0.5212748422653 9.5621328953646,2.018238044618 7.6766758367863,1.4969632023527 0.6846239356744,1.3971873213949 0.3233241632137,1.3971873213944 26.5,-24.5333768603446 26.4999999999998,-24.53337686034453 17,-12.65942701809013 18.1818113741698,-13.38068456701568 16.9255075741447,-4.19554253549552 15.9496696773497,-3.23312589403435 3.3791724371664,6.57096289152315 3.1731989597921,6.3298037989876 -10.4897679732669,25.6701962010124 -16.5695216035058,40.60054311059267 -6.0797536302391,14.93034690958 1.1593181088225,5.892701035622 1.1593181088224,5.892701035622 1.2807838692388,1.280783869233 1.2807838692388,1.280783869233 4.4520435137581,0.6102204442611 4.4520435137581,0.6102204442609 22.3024218664533,-8.9509931592912 22.5058804049503,-8.7140522586961 0.8687759698348,3.3460104020536 0.6653174313384,3.1090695014584 -17.8477331787864,7.6746727117873 -17.847733178786,7.6746727117873 -12.9507685571268,-1.5246675366081 -13.5791951522599,-1.5337422132456 -2.2961288242582,-6.6482300528133 -1.667702229125,-6.6391553761756 14.0559150876941,-38.6218297800095 14.0559150876936,-38.62182978000959 -2.3651867671316,-5.98901484381484 -2.3651867671317,-5.98901484381485 -1.3945994963042,0.29272002826115 -15.4000301457979,5.28448800976611 -14.005430649494,4.99176798150484 -39.994569350506,38.6315846939861 -39.994569350506,38.631584693986 -0.2841568687901,3.5839272962479 0.5,10.4986492747432 0.7841568687901,6.9147219784952 17.5,5.8355791595013 32.4999999999998,11.7734870843673 15,5.9379079248661 31.7557153463952,0.6849821440239 31.7557153463947,0.6849821440239 5.7442846536053,10.8649446619996 5.7442846536048,10.8649446619996 3.1033088255972,0.011864131114 9.3003054815713,-0.635850239799 6.1969966559741,-0.647714370913 -0.5503054815713,-1.352285629087 -1.0883137129524,-2.6725251378662 -0.5380082313815,-1.3202395087791 5.4943845759077,-4.38428011142 5.4943845759077,-4.3842801114201 -2.9864480655444,-5.2197668444069 -2.9864480655444,-5.219766844407 5.780071721018,-0.6576274805355 7.6384001968817,-1.1774833285602 1.858328475863,-0.5198558480246 -4.1935999158162,-4.2729670056953 -4.1935999158164,-4.2729670056956 10.5254833052463,-0.7174182513543 10.5254833052462,-0.7174182513543 -0.968190220327,-2.5465332614084 -0.6414964074884,-2.873227074261 26.2779783550337,-2.8627594675695 25.9512845421951,-2.5360656547172 3.8540656181683,-4.4985522208059 3.8540656181685,-4.4985522208059 2.7153285776451,0 2.7153285776451,0 5.3063114991085,3.959039028284 5.7057374204277,4.3584649495493 -1.6482945446171,5.1765639884425 -2.0477204659362,4.7771380671773 15.4609255408592,23.6143969832735 15.4609255408589,23.6143969832735 1.5616633088363,11.9584644250419 1.561663308836,12.6407048864252 -2e-13,0.6822404613831 -10.9927192610376,0.7181146027985 -10.9927192610376,0.7181146027984 -11.374859832325,-10.6088194892235 -11.3748598323249,-10.6088194892236 -9.8824209066373,0.011865234825 -9.8824209066377,0.011865234825 -3.25,5.9173674194164 -3.2499999999998,5.9173674194164 -2e-13,10.8737647937378 -2e-13,10.8737647937378 -2.8858205484399,3.9470025520208 -2.8858205484401,3.9470025520209 -0.6583668138232,25.5 -1.6637372091016,41.1803433287199 -1.0053703952783,15.68034332872 2.974988091986,5.893418298929 2.9749880919859,5.8934182989291 1.0745696655557,9.636824620922 1.0745696655557,10.0822362675798 -4.6781388319096,2.039413751429 -4.9831541270436,1.5940021047712 -2.7572579900267,-4.8392680341809 -2.4522426948928,-4.839268034181 -1.5804195104198,-24.8432149648332 -1.8908742380773,-25.1536696925085 -5.6460397098098,-1.3223276254964 -5.6252088192946,-0.722249060662 -1.3815524323913,19.6294618141469 -1.0919285952488,19.3398379769879 5.0434084745573,11.3441944033349 5.0434084745569,11.7592054982674 -5.280431658039,2.558181451333 -5.2804316580389,2.1431703564002 -6.9695683419611,-1.0072184830763 -7.719568341961,-1.0270270443042 -0.75,-0.019808561228 0,-10.8664359110179 0,-10.8664359110178 3.0131813594817,-20.8835640889822 3.0131813594815,-20.8835640889821 -2.9102764131687,-13.3137617203374 -3.4929235283905,-13.8964088355944 -10.3529049463126,-2.4304376835558 -9.7702578310913,-1.8477905682989 -12.5318132102188,-5.0266082852778 -12.5318132102192,-5.0266082852778 -10.7425037527643,-2.9059411393619 -10.742503752764,-2.905941139362 -3.5682572431466,7.176748828533 -3.5682572431472,7.176748828533 -8.3530411513943,8.5 -8.3530411513947,8.5 -4.5502195589087,18.1930772392399 -4.5502195589083,18.19307723924 2.9362888365961,7.9636441712105 6.4958349164331,15.0319586284705 3.5595460798369,7.0683144572603 0,4.3256984546826 0,4.3256984546825 -4.6022468107377,2.2359441892051 -4.6022468107376,2.2359441892053 -4.1477531892623,-3.4515549836567 -7.4081411638101,-6.2866785115984 -3.2603879745483,-2.8351235279416 -2.0227107813612,-23.1750750898145 -2.0227107813613,-23.1750750898144 2.5032668687232,-14.7714234640423 2.2830987559091,-14.9857402161212 -3.9049510030893,-0.9025575418659 -3.6847828902753,-0.6882407897872 -0.9942576694698,3.8490560957228 -7.1481453204144,31.1389147570586 -6.1538876509452,27.289858661336 5.7308910303468,10.210141338664 6.1199418843213,10.9245392178349 0.3890508539739,0.7143978791705 -5.1363311764491,2.6027759812089 -5.1363311764491,2.6027759812087 -3.6506824971818,-2.5757379438626 -5.7927216772385,-4.3171738603794 -3.6391346471487,-4.7414359165168 -1.4970954670918,-3 -1.6413400774002,-8.0765787761858 -1.6413400774,-8.0765787761857 2.0602697547086,-12.8426056009962 5.446637519462,-26.4234212238144 5.0360502239192,-22.080815622818 2.1338643395669,-10.1953017943443 0.4841818804015,-1.6953017943443 -3.4905823535494,-0.6548371967876 -3.4905823535494,-0.6548371967875 -0.6746680932745,-5.3998610088681 -0.6746680932744,-5.399861008868 -0.6347766876565,0.0086895361 -13.1347766876564,1.4913104639025 -12.5,1.4826209278049 -8.5,0 -8.5,0 -12.5,-1.4826209278049 -13.25,-1.4913104639025 -0.75,-0.0086895361 0,1.5 -0.25,1.489175709107 -5.0738300156306,-1.4743884036528 -4.8238300156307,-1.4635641127598 0.5396308073376,2.7243884036528 1.1433399078708,6.2243884036528 0.6037091005331,3.5 3.8855993077211,2.7825861853314 5.9190837693018,5.638351774163 2.0334844615806,2.8557655888317 -10.7719221216889,2.6723728427239 -10.7719221216888,2.672372842724 -2.6195010142406,4.189275383113 -2.6195010142406,4.1892753831129 -0.7156733721174,21.6420160369614 -0.7156733721175,21.6420160369615 -10.950275640612,14.008635409502 -10.9502756406119,14.0086354095019 -14.681221512883,5.1312936013081 -14.681221512883,5.131293601308 -19.3141517516759,-3.0310942648591 -21.0071691242092,-3.9371696654758 -13.1858482483241,-7.9653999138711 -11.4928308757908,-7.0593245132541 -5.5709433902456,-12.7854508690415 -5.5709433902457,-12.7854508690416 -25.9290566097543,-0.7520845364625 -36.8673513402766,-0.5 -10.9382947305224,0.2520845364625 -5.6517053361483,14.0553746456068 -5.6517053361483,14.0553746456066 -2.2534315027655,9.1198424787049 -2.2534315027655,9.1198424787049 -11.1565684305638,4.0829133820677 -11.1565684305639,4.0829133820679 z m 6.7542971603449,-17.5174694277109 11.75,-2.843837879223 6.5,-2.1468231994454 -0.1447467784176,-1 -7.5,-13.2194078361733 -7.3552532215824,-12.2194078361732 -3.6017826923717,-0.030592163827 -3.6017826923718,-0.030592163827 -0.6422235512351,8.25 -0.6482173076283,16.0938378792231 -0.00599375639,7.843837879223 z m 189.9326123294429,-0.508024702443 5.3173876705571,-0.017363623775 6.6394352265182,-1.4072745473236 11.75,-3.6057804138833 5.1105647734818,-2.1985058665596 0,-0.9332226746117 -9.75,-19.8542165180698 -9.75,-18.920993843458 -1.7114559269033,-0.022639444272 -1.7114559269034,-0.022639444272 -0.9859732207336,3.75 -5.0831993527593,21.75 -4.6199585229201,19.75 -0.5227323908945,1.75 z m -212.5995193261144,-1.0063718325165 1.0830930033286,0.023735456291 2.1766446953802,-15.25 2.1766446953802,-15.25 -1.677692796577,-1.2330543646426 -1.6776927965771,-1.2330543646426 -1.0820449021317,0.8244966887777 -12.8320449021317,10.0571551697295 -11.75,9.6483431450577 5.3837181110421,3.9902723672317 11.25,5.9864790745163 z m 192.373096902179,-1.9762645437089 0.7245993697397,0 3.5087284168997,-16.75 3.2218591739579,-17.1044128550851 -16.8755366482603,8.5 -16.5886674053186,8.8544128550851 4.776413593737,4.2427540941645 4.7764135937371,4.2427540941646 7.8657952678839,4.0072459058354 z m -138.8139034013604,-10.0352264699153 6,-5.766878791475 5.3577134958529,-5.8021052613904 2.6959651449725,-4.9839432456361 2.6959651449724,-4.9839432456361 -16.9622875832549,-5.6327274509802 -16.9622875832549,-5.6327274509799 -1.565770427702,3.0278661287945 -1.5657704277021,3.0278661287946 2.3320928659845,3.2326283788294 9.8320928659845,13.3556833592966 z m 199.0012168840463,-2.0415742127338 6.2776765935578,-6.5935010602723 7.1127631702984,-10.984328794894 2.3512218595895,-5.7089240638646 -19.1541234080885,-5.6162066151896 -19.167506312925,-4.9171074070893 10.1400599433022,17.6180804477019 10.5386078597779,17.2195325312264 z m -286.1992307734034,-11.1111109343155 16.3458657327939,-10.2960430086943 15.5290628197917,-9.9839546256589 -3.1596005836878,-5.7541801395166 -3.1596005836878,-5.7541801395166 -5,-0.00781007937 -17.8716524339221,0.6486228116049 -12.87165243392209,0.6564328909766 0.65396076516896,6.3830315672704 0.65396076516893,6.3830315672702 2.33226714866868,6.4253237890256 4.0314265196471,9.0185687693356 1.69915937097842,2.59324498031 z m 190.0844253405912,-11.0342934490974 20.8333848018139,-7.7342318617161 20.1379172428049,-7.4564369277782 -0.03180337187,-1.0435630722218 -1.3415785901537,-2.7680385197364 -1.3097752182833,-1.7244754475144 -17.4084214098463,-1.5081372152682 -21.2945814252341,-1.948630920334 -3.8861600153877,-0.4404937050657 0.5152794245981,8.1731063678482 0.515279424598,8.1731063678484 1.2874957889758,4.2777949339381 1.2874957889757,4.2777949339379 z m -83.1304806477529,-14.9075955143136 1.3982173076282,0.1298005803757 -0.6100070616193,-7.75 -0.6100070616192,-7.75 -1.6711252187865,-5 -2.288210246009,-5.6672734659457 -0.6170850272225,-0.6672734659458 -15,5.7416726383069 -15,5.741672638307 0.2761627159073,5.8684302102127 0.6224466958916,6.2147141901972 16.2238372840927,1.6773700370504 z m 197.9894641034765,-2.982606971364 -0.2707227483917,-5.6375924482604 -0.6584041594966,-5.75 -2.0019804800334,-6 -2.0019804800336,-6 -1.8023937474545,-2.3438558007826 -1.8023937474547,-2.3438558007826 -15.1446147970455,7.5849447550401 -15.1446147970454,7.5849447550401 -1.5323372951581,2.963213579597 -1.5323372951581,2.9632135795968 3.2520490680836,0.5928488140996 20.7520490680834,3.433289914406 z m -276.1728651695928,-11.9934889846474 1.214816241512,0.105896536387 0.9694040247249,-1.8113479890789 0.9694040247249,-1.8113479890789 -5.6842202662369,-17.7017097324906 -5.6842202662369,-17.7017097324906 -5.0292460000785,3.3909604859536 -5.0292460000786,3.3909604859536 -5.5072827130838,5.9485226164145 -5.5072827130838,5.9485226164145 -2.9394455163077,5.6142670563979 -2.9394455163076,5.614267056398 0.63253389140982,0.63253389141 16.97597422946997,4.4534110264163 z m 198.5226120230672,-1.0049466687297 4.3141821236569,-6.991641337893 3.1636225909057,-7.5156158111818 -11.73607325702,-8.8975154569903 -12.2216446070646,-8.4843841888181 -5.8294796175326,4.1576925458176 -4.930776999316,4.1576925458176 -4.6711448631299,6.8364585068235 -4.6711448631299,6.8364585068234 0.6098717919178,0.609871791918 17.9225156140256,4.8950057422423 z m -184.8880635955006,-9.2848551923043 4.1506353309214,-0.6059596938035 3.3832672739219,-0.9050353825393 1.3832672739219,-0.8760679247296 3.3050915551547,-15.8376986451154 3.3050915551547,-15.8376986451153 -1.1883588290766,-0.8320507493204 -1.1883588290766,-0.8320507493204 -9.3420099245349,0.4864733515508 -9.915075944856,1.0595393718717 -0.573066020321,0.5730660203209 1.698911902585,14.2515907218107 2.2644406139346,17.0922376410975 0.5655287113494,2.8406469192866 z m 231.3988376007148,-8.2560080811487 14.5460487718905,-7.2755044426541 0.7942510416839,-0.7612911621439 -5.2942510416839,-4.0819360179676 -5.2942510416838,-4.0819360179677 -6.444614227924,-3.045865379091 -6.6619866916256,-2.8238129403485 -2.3287428218491,12.2220524387426 -2.5898110385813,14.1812534009703 -0.4784406804333,2.1812534009702 z m -192.9982022697934,-1.3320460045552 10.75,-4.0134526301807 3,-1.1694074035764 -5.5460622252429,-5.1666937415589 -5.5460622252429,-5.166693741559 -5.2039377747571,-2.8124121408563 -5.2039377747571,-2.8124121408562 0,11.992558512596 0,11.9925585125961 z m 162.2762178220187,1.9837524831249 5.0189669433542,-12.1893916922683 4.839085940982,-13.1528121190647 0.384270706355,-0.9634204267965 -9.884270706355,0.5749946789953 -9.8842707063549,0.5749946789955 -6.7077507281904,2.1049481850937 -7.2021359076064,2.9048802089236 -0.4943851794164,0.7999320238299 11.6831689642522,9.6729372311457 z m 106.8562944920097,-34 12.8825123140284,0 0.7097772080621,-7.5743771445761 0.3278056103154,-7.9563487423228 -13.3422895220905,1.0643876398614 -13.2103179243438,1.4563487423229 -0.25,6.5099895047146 0,6.5 z m 43.3776126260329,-6 12.4741025484299,0 2.7077963648078,-4.0917565576132 2.3020195667517,-4.4975333556694 -13.5756982937914,0.6502864270306 -13.1699214957354,1.0560632250867 -0.9992118152619,-0.6175468637923 -0.9992118152619,-0.6175468637923 0,2.4772295261392 -0.6069888041843,4.0590169943749 -0.6069888041845,1.5817874682358 z m 15.9224873893816,-17.1338874641861 1.6826123294429,0.1338874641861 0.4800689006454,-1.75 1.1325392753656,-5.6057485424767 0.6524703747201,-3.8557485424767 -5.8151516048085,0.5696333219317 -13.5675703739681,1.1912950131156 -7.7524187691597,0.6216616911839 -0.6176776490387,2.4610237778295 -0.6176776490387,2.4610237778295 0.5907660785467,0.5907660785465 11.3700964181982,1.8195422873455 z"
     id="path4224"
     inkscape:connector-curvature="0"
     sodipodi:nodetypes="ccccccccccccccccccccccccccccccccccccccccccccccccccccccccccccccccccccccccccccccccccccccccccccccccccccccccccccccccccccccccccccccccccccccccccccccccccccccccccccccccccccccccccccccccccccccccccccccccccccccccccccccccccccccccccccccccccccccccccccccccccccccccccccccccccccccccccccccccccccccccccccccccccccccccccccccccccccccccccccccccccccccccccccccccccccccccccccccccccccccccccccccccccccccccccccccccccccccccccccccccccccccccccccccccccccccccccccccccccccccccccccccccccccccccccccccccccccccccccccccccccccccccccccccccccccccccccccccccc" /></svg>