<svg width="151" height="92" viewBox="0 0 151 92" fill="none" xmlns="http://www.w3.org/2000/svg">
<path d="M143.37 33.83C140.25 31.5 136.49 29.9 132.19 29.08C130.22 28.71 128.58 28.51 126.87 28.43C125.9 28.39 125.01 28.36 124.12 28.36C123.31 28.36 122.5 28.38 121.66 28.44C117.72 28.7 113.92 29.34 110.08 30.39L107.69 20.43C107.09 17.98 106.36 15.34 105.05 12.61C103.61 9.61004 101.49 7.19004 98.7398 5.42004C92.1698 1.19004 83.5998 0.250039 79.0698 0.0700391C78.5498 0.0500391 77.9798 0.0400391 77.3898 0.0400391C74.1898 0.0400391 70.0798 0.410039 66.2498 1.88004C65.2398 2.27004 64.2498 2.75004 63.2398 3.34004C61.8498 3.12004 60.5698 3.05004 59.3998 3.05004C58.7298 3.05004 58.0898 3.07004 57.4898 3.10004C55.5298 3.18004 53.4198 3.31004 51.1198 3.90004C43.9498 5.65004 38.7498 10.83 36.0898 18.87C35.4398 20.84 35.0498 22.71 34.9098 24.59L33.9398 37.48C31.8098 37 29.6998 36.69 27.5298 36.52C26.7398 36.46 25.9698 36.44 25.2598 36.44C24.3098 36.44 23.4498 36.48 22.7198 36.52C17.0698 36.84 12.1798 38.79 8.16982 42.31C3.57982 46.36 0.56982 52.9 0.13982 59.81C-0.48018 69.57 1.81982 77.49 6.97982 83.34C8.91982 85.54 11.1898 87.31 13.9098 88.74C19.1698 91.51 24.6498 91.9 29.3098 91.92H29.6898C32.9098 91.92 35.5298 91.75 38.1598 91.36L38.7098 91.28C40.5998 91.01 42.3798 90.75 44.3698 90.29C46.8398 89.72 49.1598 89 51.4398 88.07L56.0098 86.22L65.5698 81.81L74.9498 77.34L80.7598 74.7C80.8998 74.74 81.0498 74.78 81.1898 74.82C82.8898 75.21 84.2998 75.3 85.4398 75.37L90.5098 75.67L99.0998 75.76C99.4198 75.76 99.7498 75.76 100.07 75.76C104.85 75.76 109.25 75.38 114.45 74.88C120.46 74.3 125.84 73.16 130.88 71.39C133.57 70.44 136.12 69.21 138.67 67.61C141.04 66.13 143.35 64.18 145.34 61.96C147.77 59.25 149.46 56.12 150.36 52.66C152.18 45.62 149.51 38.41 143.39 33.84L143.37 33.83Z" fill="white"/>
<path d="M29.3399 85.3599C25.0399 85.3399 20.8199 84.9699 16.9599 82.9399C15.0099 81.9199 13.3599 80.6699 11.8899 79.0099C7.34995 73.8599 6.23994 66.9299 6.66994 60.2299C6.96994 55.5199 8.91994 50.3899 12.4899 47.2499C15.4799 44.6199 19.1099 43.3099 23.0799 43.0799C24.3999 42.9999 25.6899 42.9699 27.0299 43.0799C30.9499 43.3699 34.7099 44.2899 38.3899 45.6799L37.9899 50.4999L37.3699 59.3499C37.3199 60.0799 37.2599 60.7399 37.3199 61.4899C37.7499 61.7399 38.2699 61.8799 38.7799 61.9799C41.9199 62.6099 45.0299 62.8199 48.2299 62.8699C49.8899 62.8999 51.4099 62.9199 53.0699 62.8499C56.6099 62.7099 60.0399 62.3799 63.5599 61.9399C65.5599 61.6899 67.4099 61.2699 69.5099 61.1299L60.9399 69.2399C55.5699 73.9299 49.8199 78.1299 42.9999 80.4299C39.2499 81.6899 35.4099 82.3599 31.4799 82.7199C28.1999 83.0199 25.1099 82.9199 21.7799 82.6099C25.7499 83.8299 32.5599 83.6299 36.6999 83.1099C42.0699 82.4299 47.2399 80.7399 51.8599 77.8999C54.1599 76.4899 56.2899 74.9299 58.4099 73.2699C60.7799 71.4199 62.9099 69.4099 65.0799 67.3199C71.7499 60.8999 79.2999 54.3699 86.8099 48.9799C88.8399 47.5199 90.8999 46.2399 93.0499 44.9699C95.9199 43.2799 98.7999 41.8499 101.81 40.4499C108.26 37.4399 114.99 35.4799 122.11 34.9999C123.63 34.8999 125.09 34.9399 126.6 34.9999C128.11 35.0599 129.48 35.2499 130.96 35.5399C134.03 36.1199 136.95 37.2299 139.45 39.0999C143.21 41.9099 145.2 46.3499 143.99 51.0299C143.36 53.4899 142.14 55.6999 140.45 57.5899C138.94 59.2799 137.11 60.8599 135.19 62.0599C133.13 63.3399 131 64.3999 128.7 65.2099C123.87 66.9099 118.91 67.8699 113.82 68.3599C108.73 68.8499 104.1 69.2599 99.1699 69.2099L90.8099 69.1299L85.8399 68.8299C84.7699 68.7699 83.79 68.6999 82.66 68.4399C83.62 67.9099 84.4499 67.5699 85.3899 67.2099L94.16 63.8599C96.03 63.1499 97.8499 62.6199 99.7699 62.1099L103.28 61.1799C109.04 59.6499 116.79 59.0699 122.45 60.3999C122.59 60.4299 122.73 60.3599 122.76 60.3499C122.8 60.3499 122.68 60.2199 122.62 60.1899C121.75 59.7499 120.55 59.3699 119.51 59.1399C115.45 58.2099 110.32 58.4199 106.21 59.1199C101.84 59.8599 97.6499 61.0299 93.4599 62.4599C89.8599 63.6899 86.3599 64.9799 82.8899 66.5499L72.2299 71.3899L62.7399 75.9099L53.4599 80.1999L48.9699 82.0199C46.9799 82.8299 44.9899 83.4399 42.8899 83.9199C40.9899 84.3599 39.1499 84.6099 37.2199 84.8899C34.5699 85.2799 32.0199 85.3899 29.3399 85.3799V85.3599Z" fill="black"/>
<path d="M39.7898 47.2998L40.0198 44.0098L41.2098 28.2298L41.4498 25.0898C41.5598 23.6498 41.8698 22.2998 42.3198 20.9398C44.0298 15.7598 47.1698 11.6198 52.6798 10.2698C54.3898 9.82978 56.0398 9.71978 57.7798 9.64978C59.5198 9.57978 61.0498 9.55978 62.8398 9.92978L58.3598 13.7398C57.1698 14.7498 55.8998 15.5198 54.4598 16.0898C53.4998 16.4698 52.5098 16.6198 51.5098 16.4798C50.2598 16.3098 49.5398 15.5098 49.0498 14.2598C48.4898 15.8898 49.4698 17.1598 50.9398 17.6298C53.3798 18.4098 56.2498 17.0798 58.2198 15.6298C59.4898 14.6998 60.5798 13.6698 61.7698 12.6198C63.7598 10.8698 66.1098 8.95978 68.6098 7.99978C71.7398 6.79978 75.4598 6.48978 78.8198 6.61978C84.1698 6.82978 90.6598 7.99978 95.2198 10.9398C96.9598 12.0598 98.2698 13.5898 99.1698 15.4598C100.18 17.5598 100.8 19.7198 101.35 21.9898L103.1 29.2098L105.05 37.4998L101.82 38.8098L96.8798 41.1798C95.1598 41.9998 89.7398 45.2998 88.1398 46.4398L82.2598 50.6498C78.8698 53.0798 75.7398 55.7098 72.5498 58.4298C67.1298 59.6798 59.3298 60.7098 53.8198 60.9298L50.8398 61.0498C46.8298 61.2098 42.9098 60.9098 38.8398 60.3198L39.5398 51.3698L39.7898 47.3098V47.2998ZM86.3698 23.3198C88.0298 24.0198 89.7498 24.2798 91.4698 24.6898C91.6498 24.7298 91.7898 24.7998 91.9498 24.9698C88.5398 25.2198 85.0698 24.4498 81.8798 23.3298C79.4998 22.4898 77.3198 21.4398 75.3098 19.9398C73.0998 18.2898 70.9498 15.7098 70.6598 12.8798C70.5998 12.2898 70.6998 11.7298 70.5698 11.0898C68.8698 15.5098 72.1998 19.4898 75.5998 21.8898C78.8698 24.1998 82.6298 25.5298 86.5998 25.9898C89.6898 26.3498 94.8398 26.4498 97.2498 24.0598C96.5798 23.9998 96.0198 24.0498 95.3798 24.0698C92.3398 24.1698 89.4598 23.7098 86.3798 23.3198H86.3698Z" fill="black"/>
<path d="M62.2201 50.9999H47.0801L54.6501 37.8599L62.2201 50.9999Z" fill="white"/>
</svg>
